<svg width="11" height="5" viewBox="0 0 11 5" fill="none" xmlns="http://www.w3.org/2000/svg">
<path d="M7.61111 4.75767C7.43827 4.82229 7.16667 4.87884 6.7963 4.9273C6.43827 4.97577 6.04321 5 5.61111 5C5.09259 5 4.64815 4.96769 4.27778 4.90307C3.90741 4.83306 3.65432 4.73883 3.51852 4.62036C3.38272 4.4965 3.21605 4.33764 3.01852 4.14378C2.82099 3.94453 2.61111 3.72375 2.38889 3.48142C2.17901 3.2391 1.95679 2.98331 1.72222 2.71406C1.5 2.43942 1.28395 2.16209 1.07407 1.88207C0.864198 1.60205 0.666667 1.32741 0.481481 1.05816C0.296296 0.788907 0.135802 0.535811 0 0.298869C0.17284 0.223479 0.419753 0.156166 0.740741 0.0969307C1.07407 0.0323102 1.42593 0 1.7963 0C2.25309 0 2.62346 0.0430802 2.90741 0.12924C3.2037 0.210016 3.41975 0.36349 3.55556 0.589661C3.88889 1.11739 4.22222 1.62359 4.55556 2.10824C4.90123 2.58751 5.25926 3.08831 5.62963 3.61066H5.74074C6.07407 3.10447 6.41358 2.5525 6.75926 1.95477C7.11728 1.35703 7.45679 0.761982 7.77778 0.169629C8 0.121163 8.23457 0.0807755 8.48148 0.0484651C8.74074 0.016155 9.03086 0 9.35185 0C9.80864 0 10.1975 0.0457728 10.5185 0.137318C10.8395 0.223479 11 0.368874 11 0.573506C11 0.691976 10.9321 0.864297 10.7963 1.09047C10.6728 1.31664 10.5062 1.57243 10.2963 1.85784C10.0988 2.13786 9.87037 2.43134 9.61111 2.73829C9.3642 3.04523 9.11111 3.33603 8.85185 3.61066C8.60494 3.87991 8.37037 4.11955 8.14815 4.32956C7.92593 4.53419 7.74691 4.6769 7.61111 4.75767Z" fill="black"/>
</svg>
